<?xml version="1.0" standalone="no"?><!DOCTYPE svg PUBLIC "-//W3C//DTD SVG 1.1//EN" "http://www.w3.org/Graphics/SVG/1.1/DTD/svg11.dtd"><svg t="1712134557580" class="icon" viewBox="0 0 1024 1024" version="1.1" xmlns="http://www.w3.org/2000/svg" p-id="1561" xmlns:xlink="http://www.w3.org/1999/xlink" width="200" height="200"><path d="M78.523564 529.539802a459.786139 459.786139 0 1 0 919.572278 2.838812 459.786139 459.786139 0 1 0-919.572278-2.838812z" fill="#FFF8E6" p-id="1562"></path><path d="M513.470099 26.968713a484.879208 484.879208 0 1 1-486.653465 484.676436 484.929901 484.929901 0 0 1 486.653465-484.676436m0-22.304951A506.930693 506.930693 0 0 0 5.069307 511.543762a504.548119 504.548119 0 0 0 505.359208 506.930693A506.930693 506.930693 0 0 0 871.920792 154.816634 502.165545 502.165545 0 0 0 513.571485 4.663762z" fill="#5E482A" p-id="1563"></path><path d="M353.353939 595.4617a319.873267 213.924752 57.1 1 0 359.230943-232.39692 319.873267 213.924752 57.1 1 0-359.230943 232.39692Z" fill="#FFD100" p-id="1564"></path><path d="M706.458614 747.418614c-99.054257 64.07604-257.520792-4.359604-353.381386-152.636832-60.527525-93.47802-82.021386-196.435644-64.532278-275.973069a444.274059 444.274059 0 0 0 64.887129 159.88594c95.860594 148.327921 254.327129 216.712871 353.381386 152.636832 36.549703-23.724356 60.020594-62.149703 70.311287-108.787327 17.438416 96.367525-6.184554 183.508911-70.666138 224.874456z" fill="#F7AF00" p-id="1565"></path><path d="M621.040792 666.563168a206.219406 206.219406 0 0 1-45.623762-5.069307c-85.113663-18.50297-171.59604-84.150495-231.109703-176.614653-18.705743-29.097822-78.675644-131.193663-59.158812-220.869703a11.152475 11.152475 0 1 1 21.79802 4.613069c-17.99604 81.108911 38.47604 176.513267 55.762376 203.938218 55.762376 87.344158 137.428911 149.950099 216.966337 166.932277 46.08 9.783762 87.69901 3.80198 120.700198-17.894653 35.485149-23.217426 70.159208-72.288317 67.320396-129.571485a11.152475 11.152475 0 0 1 22.30495-0.963169c3.345743 70.970297-39.439208 124.603564-77.509703 149.291089a160.494257 160.494257 0 0 1-91.450297 26.208317z" fill="#5E482A" p-id="1566"></path><path d="M429.116832 262.43802c34.572673-30.821386 100.929901-16.424554 148.936237 33.406732s61.490693 115.78297 26.91802 146.604357S504.041188 458.873663 456.237624 409.042376s-61.693465-115.78297-27.120792-146.604356z" fill="#FFF9DB" p-id="1567"></path><path d="M475.298218 246.368317c32.950495 0 71.426535 17.438416 102.247921 49.476435 48.006337 49.831287 61.490693 115.78297 26.918019 146.604357a69.601584 69.601584 0 0 1-46.840396 16.069703c-32.950495 0-71.426535-17.438416-102.24792-48.969505-48.006337-49.324356-61.490693-115.78297-26.91802-146.604357a66.864158 66.864158 0 0 1 46.688317-16.576633m0.557623-22.304951a89.777426 89.777426 0 0 0-61.389307 21.595248 83.288713 83.288713 0 0 0-26.563168 59.716436c-1.622178 39.033663 17.99604 83.187327 52.365941 118.773861s77.915248 55.762376 117.962772 56.117228a89.777426 89.777426 0 0 0 61.389307-21.595248 82.122772 82.122772 0 0 0 26.563168-59.209505c1.622178-39.033663-17.99604-83.187327-52.36594-118.773861S515.903366 224.164752 475.855842 224.063366z" fill="#5E482A" p-id="1568"></path><path d="M445.085149 186.449109c90.233663 0.253465 195.979406 66.509307 267.101782 176.71604 95.860594 148.327921 93.325941 320.684356-5.728317 384.760396a153.397228 153.397228 0 0 1-85.72198 24.079207c-90.233663-0.253465-195.979406-66.509307-267.101783-176.716039-95.860594-148.327921-93.325941-320.684356 5.728317-384.760396a151.065347 151.065347 0 0 1 85.721981-24.079208m0-22.304951a178.084752 178.084752 0 0 0-97.93901 27.57703c-54.34297 35.485149-84.961584 98.59802-86.178218 179.2-1.267327 77.053465 24.839604 160.798416 73.809109 236.432475 73.150099 113.248317 185.485941 186.601188 285.858218 186.905347a178.084752 178.084752 0 0 0 97.939009-27.57703c54.34297-35.485149 84.961584-98.59802 86.178218-179.2 1.267327-77.053465-24.839604-160.798416-73.809109-236.432475-73.150099-113.248317-185.485941-186.601188-285.858217-186.905347z" fill="#5E482A" p-id="1569"></path></svg>